<svg xmlns="http://www.w3.org/2000/svg" width="512" height="512" viewBox="0 0 512 512" role="img" aria-label="段位提升">
  <defs>
    <linearGradient id="board" x1="90" y1="108" x2="410" y2="400" gradientUnits="userSpaceOnUse">
      <stop offset="0" stop-color="#ffe2ad"/>
      <stop offset=".56" stop-color="#e8bb6b"/>
      <stop offset="1" stop-color="#c9913f"/>
    </linearGradient>
    <linearGradient id="edge" x1="132" y1="374" x2="388" y2="402" gradientUnits="userSpaceOnUse">
      <stop offset="0" stop-color="#9f6727"/>
      <stop offset="1" stop-color="#6f461f"/>
    </linearGradient>
    <linearGradient id="gold" x1="159" y1="94" x2="345" y2="322" gradientUnits="userSpaceOnUse">
      <stop offset="0" stop-color="#fff2b6"/>
      <stop offset=".48" stop-color="#d8a84c"/>
      <stop offset="1" stop-color="#f59e0b"/>
    </linearGradient>
    <linearGradient id="green" x1="135" y1="278" x2="197" y2="356" gradientUnits="userSpaceOnUse">
      <stop offset="0" stop-color="#39d98a"/>
      <stop offset="1" stop-color="#167247"/>
    </linearGradient>
    <linearGradient id="blue" x1="218" y1="223" x2="280" y2="356" gradientUnits="userSpaceOnUse">
      <stop offset="0" stop-color="#4ab0ff"/>
      <stop offset="1" stop-color="#0b5fa5"/>
    </linearGradient>
    <filter id="shadow" x="-18%" y="-18%" width="136%" height="148%">
      <feDropShadow dx="0" dy="20" stdDeviation="18" flood-color="#123b5b" flood-opacity=".22"/>
    </filter>
  </defs>
  <g filter="url(#shadow)">
    <path d="M112 134c8-16 24-25 42-24l240 14c19 1 32 17 29 36l-31 205c-3 18-19 30-37 28l-245-27c-18-2-30-18-27-36l29-196z" fill="url(#board)"/>
    <path d="M84 330l26 36 245 27c18 2 34-10 37-28l31-205-26-35-31 203c-3 18-19 30-37 28L84 330z" fill="url(#edge)" opacity=".78"/>
    <path d="M128 151l258 15M120 198l259 16M113 245l260 17M106 293l260 18M152 132l-30 219M196 135l-30 221M241 138l-30 223M286 140l-30 226M331 143l-30 228M376 146l-30 230" fill="none" stroke="#7d4c20" stroke-width="2.2" stroke-linecap="round" opacity=".22"/>
    <path d="M130 357h260" stroke="#73461d" stroke-opacity=".34" stroke-width="12" stroke-linecap="round"/>
    <rect x="140" y="280" width="62" height="76" rx="15" fill="url(#green)"/>
    <rect x="222" y="225" width="62" height="131" rx="15" fill="url(#blue)"/>
    <rect x="304" y="174" width="62" height="182" rx="15" fill="url(#gold)"/>
    <path d="M256 80l26 52 58 8-42 41 10 58-52-27-52 27 10-58-42-41 58-8 26-52z" fill="url(#gold)" stroke="#fff3bd" stroke-width="8" stroke-linejoin="round"/>
    <path d="M367 118l33-33m0 0v39m0-39h-39" fill="none" stroke="#f59e0b" stroke-width="13" stroke-linecap="round" stroke-linejoin="round"/>
    <path d="M179 317h18M260 286h18M342 239h18" stroke="#ffffff" stroke-opacity=".7" stroke-width="8" stroke-linecap="round"/>
  </g>
</svg>
