<svg xmlns="http://www.w3.org/2000/svg" width="360" height="220" viewBox="0 0 360 220" role="img" aria-label="五子连线图标">
  <defs>
    <linearGradient id="card" x1="0" y1="0" x2="1" y2="1">
      <stop offset="0" stop-color="#f8fbff"/>
      <stop offset="0.58" stop-color="#eef7f0"/>
      <stop offset="1" stop-color="#e8f1fb"/>
    </linearGradient>
    <linearGradient id="board" x1="0" y1="0" x2="1" y2="1">
      <stop offset="0" stop-color="#f8ddb0"/>
      <stop offset="1" stop-color="#e7b867"/>
    </linearGradient>
    <radialGradient id="black" cx="35%" cy="28%" r="72%">
      <stop offset="0" stop-color="#667284"/>
      <stop offset="0.55" stop-color="#1f2937"/>
      <stop offset="1" stop-color="#080d14"/>
    </radialGradient>
    <radialGradient id="white" cx="35%" cy="28%" r="74%">
      <stop offset="0" stop-color="#ffffff"/>
      <stop offset="0.62" stop-color="#f2f6fb"/>
      <stop offset="1" stop-color="#cbd5e1"/>
    </radialGradient>
    <filter id="softShadow" x="-20%" y="-20%" width="140%" height="160%">
      <feDropShadow dx="0" dy="16" stdDeviation="14" flood-color="#123b5b" flood-opacity="0.16"/>
    </filter>
  </defs>
  <rect width="360" height="220" rx="34" fill="url(#card)"/>
  <g filter="url(#softShadow)">
    <rect x="48" y="34" width="264" height="132" rx="26" fill="url(#board)"/>
    <rect x="64" y="50" width="232" height="100" rx="18" fill="none" stroke="#895820" stroke-opacity="0.28"/>
    <g stroke="#895820" stroke-opacity="0.25" stroke-width="1">
      <path d="M82 52v96M106 52v96M130 52v96M154 52v96M178 52v96M202 52v96M226 52v96M250 52v96M274 52v96"/>
      <path d="M66 66h228M66 86h228M66 106h228M66 126h228M66 146h228"/>
    </g>
    <path d="M84 108h156" stroke="#167247" stroke-width="10" stroke-linecap="round"/>
    <path d="M84 108h156" stroke="#b6f3cd" stroke-width="3" stroke-linecap="round" opacity="0.85"/>
    <g>
      <circle cx="86" cy="108" r="16" fill="url(#black)"/>
      <circle cx="124" cy="108" r="16" fill="url(#black)"/>
      <circle cx="162" cy="108" r="16" fill="url(#black)"/>
      <circle cx="200" cy="108" r="16" fill="url(#black)"/>
      <circle cx="238" cy="108" r="16" fill="url(#black)"/>
      <circle cx="266" cy="78" r="14" fill="url(#white)" stroke="#d6dde8"/>
      <circle cx="266" cy="136" r="14" fill="url(#white)" stroke="#d6dde8"/>
    </g>
  </g>
  <g>
    <rect x="132" y="168" width="96" height="34" rx="17" fill="#ffffff" fill-opacity="0.94"/>
    <text x="180" y="191" text-anchor="middle" font-family="Arial, 'Microsoft YaHei', sans-serif" font-size="16" font-weight="800" fill="#123b5b">五子连线</text>
  </g>
</svg>
