<svg xmlns="http://www.w3.org/2000/svg" width="360" height="220" viewBox="0 0 360 220" role="img" aria-label="段位提升图标">
  <defs>
    <linearGradient id="card" x1="0" y1="0" x2="1" y2="1">
      <stop offset="0" stop-color="#fffaf0"/>
      <stop offset="0.55" stop-color="#eef7f0"/>
      <stop offset="1" stop-color="#edf4fb"/>
    </linearGradient>
    <linearGradient id="board" x1="0" y1="0" x2="1" y2="1">
      <stop offset="0" stop-color="#f8ddb0"/>
      <stop offset="1" stop-color="#e7b867"/>
    </linearGradient>
    <linearGradient id="gold" x1="0" y1="0" x2="1" y2="1">
      <stop offset="0" stop-color="#ffe7a3"/>
      <stop offset="0.54" stop-color="#d8a84c"/>
      <stop offset="1" stop-color="#f59e0b"/>
    </linearGradient>
    <filter id="softShadow" x="-20%" y="-20%" width="140%" height="160%">
      <feDropShadow dx="0" dy="16" stdDeviation="14" flood-color="#123b5b" flood-opacity="0.16"/>
    </filter>
  </defs>
  <rect width="360" height="220" rx="34" fill="url(#card)"/>
  <g filter="url(#softShadow)">
    <rect x="48" y="34" width="264" height="132" rx="26" fill="url(#board)"/>
    <rect x="64" y="50" width="232" height="100" rx="18" fill="none" stroke="#895820" stroke-opacity="0.28"/>
    <g stroke="#895820" stroke-opacity="0.25" stroke-width="1">
      <path d="M82 52v96M106 52v96M130 52v96M154 52v96M178 52v96M202 52v96M226 52v96M250 52v96M274 52v96"/>
      <path d="M66 66h228M66 86h228M66 106h228M66 126h228M66 146h228"/>
    </g>
    <path d="M93 140h174" stroke="#9c6a21" stroke-opacity="0.3" stroke-width="6" stroke-linecap="round"/>
    <rect x="102" y="108" width="38" height="32" rx="9" fill="#167247"/>
    <rect x="156" y="82" width="38" height="58" rx="9" fill="#0b5fa5"/>
    <rect x="210" y="58" width="38" height="82" rx="9" fill="url(#gold)"/>
    <path d="M180 37l13.4 27.1 29.9 4.4-21.7 21.1 5.1 29.8L180 105.3l-26.7 14.1 5.1-29.8-21.7-21.1 29.9-4.4L180 37z" fill="url(#gold)" stroke="#fff5c7" stroke-width="4"/>
    <path d="M235 48l14-14m0 0v17m0-17h-17" fill="none" stroke="#d8a84c" stroke-width="6" stroke-linecap="round" stroke-linejoin="round"/>
  </g>
  <g>
    <rect x="132" y="168" width="96" height="34" rx="17" fill="#ffffff" fill-opacity="0.94"/>
    <text x="180" y="191" text-anchor="middle" font-family="Arial, 'Microsoft YaHei', sans-serif" font-size="16" font-weight="800" fill="#123b5b">段位提升</text>
  </g>
</svg>
