<svg xmlns="http://www.w3.org/2000/svg" viewBox="0 0 720 1040" role="img" aria-label="party draw settlement background">
  <defs>
    <linearGradient id="bg" x1="0" y1="0" x2="1" y2="1">
      <stop offset="0" stop-color="#EDF4FB"/>
      <stop offset=".52" stop-color="#D7EEF9"/>
      <stop offset="1" stop-color="#F5E6C8"/>
    </linearGradient>
    <linearGradient id="card" x1="0" y1="0" x2="1" y2="1">
      <stop offset="0" stop-color="#FFFFFF" stop-opacity=".88"/>
      <stop offset="1" stop-color="#EFFFF8" stop-opacity=".76"/>
    </linearGradient>
    <filter id="shadow" x="-20%" y="-20%" width="140%" height="150%">
      <feDropShadow dx="0" dy="18" stdDeviation="20" flood-color="#0D9CA0" flood-opacity=".18"/>
    </filter>
    <filter id="toy" x="-18%" y="-18%" width="136%" height="145%">
      <feDropShadow dx="0" dy="13" stdDeviation="13" flood-color="#0D9CA0" flood-opacity=".18"/>
    </filter>
  </defs>
  <rect width="720" height="1040" rx="44" fill="url(#bg)"/>
  <circle cx="360" cy="220" r="320" fill="#FFFFFF" opacity=".2"/>
  <path d="M0 790 C116 704 226 822 360 742 C508 654 608 760 720 690 L720 1040 L0 1040 Z" fill="#D9EAF7" opacity=".48"/>
  <g opacity=".48">
    <path d="M91 262 q48 -40 96 0" fill="none" stroke="#FFFFFF" stroke-width="13" stroke-linecap="round"/>
    <path d="M526 286 q48 -40 96 0" fill="none" stroke="#FFFFFF" stroke-width="13" stroke-linecap="round"/>
    <circle cx="122" cy="590" r="12" fill="#F59E0B"/>
    <circle cx="598" cy="580" r="12" fill="#0B5FA5"/>
  </g>
  <g filter="url(#shadow)">
    <rect x="70" y="150" width="580" height="744" rx="62" fill="#FFFFFF" opacity=".2"/>
    <rect x="84" y="176" width="552" height="690" rx="54" fill="url(#card)" stroke="#FFFFFF" stroke-width="5"/>
    <rect x="112" y="212" width="496" height="92" rx="34" fill="#FFFFFF" opacity=".35"/>
    <rect x="146" y="800" width="428" height="44" rx="22" fill="#FFFFFF" opacity=".24"/>
    <ellipse cx="360" cy="746" rx="236" ry="50" fill="#0D9CA0" opacity=".12"/>
    <rect x="206" y="618" width="308" height="76" rx="38" fill="#F5E6C8"/>
    <g filter="url(#toy)">
      <circle cx="282" cy="454" r="106" fill="#111827"/>
      <ellipse cx="250" cy="408" rx="34" ry="18" fill="#FFFFFF" opacity=".14"/>
      <circle cx="438" cy="454" r="106" fill="#F8FAFC"/>
      <ellipse cx="406" cy="408" rx="34" ry="18" fill="#FFFFFF" opacity=".72"/>
    </g>
    <circle cx="248" cy="420" r="13" fill="#FFFFFF"/>
    <circle cx="316" cy="420" r="13" fill="#FFFFFF"/>
    <circle cx="404" cy="420" r="13" fill="#1F2937" opacity=".56"/>
    <circle cx="472" cy="420" r="13" fill="#1F2937" opacity=".56"/>
    <path d="M246 488 q38 30 76 0" fill="none" stroke="#FFFFFF" stroke-width="12" stroke-linecap="round"/>
    <path d="M402 488 q38 30 76 0" fill="none" stroke="#596273" stroke-width="12" stroke-linecap="round"/>
    <path d="M306 570 q54 48 108 0" fill="none" stroke="#0B5FA5" stroke-width="20" stroke-linecap="round"/>
    <circle cx="360" cy="593" r="19" fill="#D8A84C"/>
  </g>
  <g>
    <path d="M360 130 l18 36 40 6 -29 28 7 40 -36 -19 -36 19 7 -40 -29 -28 40 -6z" fill="#FFFFFF" opacity=".68"/>
    <path d="M116 710 l15 30 33 5 -24 23 6 33 -30 -16 -30 16 6 -33 -24 -23 33 -5z" fill="#FFFFFF" opacity=".55"/>
    <path d="M600 720 l15 30 33 5 -24 23 6 33 -30 -16 -30 16 6 -33 -24 -23 33 -5z" fill="#FFFFFF" opacity=".55"/>
  </g>
  <g opacity=".8">
    <rect x="72" y="430" width="32" height="14" rx="7" fill="#F59E0B" transform="rotate(-18 88 437)"/>
    <rect x="620" y="430" width="32" height="14" rx="7" fill="#0B5FA5" transform="rotate(18 636 437)"/>
    <circle cx="180" cy="238" r="8" fill="#D8A84C"/>
    <circle cx="540" cy="238" r="8" fill="#D8A84C"/>
  </g>
</svg>
