<svg xmlns="http://www.w3.org/2000/svg" viewBox="0 0 720 1040" role="img" aria-label="party defeat settlement background">
  <defs>
    <linearGradient id="bg" x1="0" y1="0" x2="1" y2="1">
      <stop offset="0" stop-color="#EDF4FB"/>
      <stop offset=".55" stop-color="#DDEBF8"/>
      <stop offset="1" stop-color="#E8EDF5"/>
    </linearGradient>
    <linearGradient id="card" x1="0" y1="0" x2="1" y2="1">
      <stop offset="0" stop-color="#FFFFFF" stop-opacity=".88"/>
      <stop offset="1" stop-color="#F3F6FF" stop-opacity=".76"/>
    </linearGradient>
    <filter id="shadow" x="-20%" y="-20%" width="140%" height="150%">
      <feDropShadow dx="0" dy="18" stdDeviation="22" flood-color="#5261B8" flood-opacity=".2"/>
    </filter>
    <filter id="softToy" x="-18%" y="-18%" width="136%" height="145%">
      <feDropShadow dx="0" dy="14" stdDeviation="14" flood-color="#5261B8" flood-opacity=".2"/>
    </filter>
  </defs>
  <rect width="720" height="1040" rx="44" fill="url(#bg)"/>
  <circle cx="152" cy="164" r="120" fill="#FFFFFF" opacity=".22"/>
  <circle cx="604" cy="240" r="148" fill="#FFFFFF" opacity=".18"/>
  <path d="M0 760 C132 690 226 778 358 728 C488 680 600 734 720 690 L720 1040 L0 1040 Z" fill="#FFFFFF" opacity=".26"/>
  <g opacity=".42">
    <path d="M110 236 q32 -22 64 0" fill="none" stroke="#FFFFFF" stroke-width="12" stroke-linecap="round"/>
    <path d="M520 196 q46 -34 92 0" fill="none" stroke="#FFFFFF" stroke-width="12" stroke-linecap="round"/>
    <circle cx="96" cy="494" r="11" fill="#F59E0B"/>
    <circle cx="612" cy="508" r="13" fill="#1D8FE1"/>
    <path d="M566 632 l20 10 -11 20 -20 -10z" fill="#FFFFFF"/>
  </g>
  <g filter="url(#shadow)">
    <rect x="70" y="154" width="580" height="740" rx="62" fill="#FFFFFF" opacity=".2"/>
    <rect x="84" y="180" width="552" height="690" rx="54" fill="url(#card)" stroke="#FFFFFF" stroke-width="5"/>
    <rect x="112" y="216" width="496" height="92" rx="34" fill="#FFFFFF" opacity=".34"/>
    <rect x="146" y="800" width="428" height="44" rx="22" fill="#FFFFFF" opacity=".24"/>
    <ellipse cx="360" cy="736" rx="218" ry="46" fill="#5261B8" opacity=".14"/>
    <rect x="218" y="618" width="284" height="98" rx="49" fill="#D9EAF7"/>
    <g filter="url(#softToy)">
      <circle cx="360" cy="468" r="130" fill="#FAFAFA"/>
      <circle cx="360" cy="468" r="108" fill="#F5F7FB"/>
      <ellipse cx="324" cy="418" rx="44" ry="24" fill="#FFFFFF" opacity=".72"/>
    </g>
    <circle cx="318" cy="429" r="15" fill="#1F2937" opacity=".42"/>
    <circle cx="402" cy="429" r="15" fill="#1F2937" opacity=".42"/>
    <path d="M322 510 q38 -26 78 0" fill="none" stroke="#8A8FA8" stroke-width="13" stroke-linecap="round"/>
    <path d="M253 352 q-45 22 -70 -15 q42 -8 75 5" fill="#D9EAF7"/>
    <path d="M467 352 q45 22 70 -15 q-42 -8 -75 5" fill="#D9EAF7"/>
    <circle cx="492" cy="560" r="22" fill="#0B5FA5" opacity=".18"/>
    <circle cx="228" cy="548" r="18" fill="#0B5FA5" opacity=".14"/>
  </g>
  <g>
    <path d="M170 150 l16 32 36 5 -26 25 6 36 -32 -17 -32 17 6 -36 -26 -25 36 -5z" fill="#FFFFFF" opacity=".56"/>
    <path d="M568 760 l15 30 33 5 -24 23 6 33 -30 -16 -30 16 6 -33 -24 -23 33 -5z" fill="#FFFFFF" opacity=".56"/>
  </g>
  <g opacity=".72">
    <rect x="86" y="382" width="30" height="14" rx="7" fill="#0B5FA5" transform="rotate(18 101 389)"/>
    <rect x="604" y="394" width="32" height="14" rx="7" fill="#F59E0B" transform="rotate(-20 620 401)"/>
    <path d="M156 838 q28 22 58 0" fill="none" stroke="#FFFFFF" stroke-width="10" stroke-linecap="round" opacity=".58"/>
    <path d="M506 838 q28 22 58 0" fill="none" stroke="#FFFFFF" stroke-width="10" stroke-linecap="round" opacity=".58"/>
  </g>
</svg>
