<svg xmlns="http://www.w3.org/2000/svg" viewBox="0 0 720 1040" role="img" aria-label="party master medal background">
  <defs>
    <linearGradient id="bg" x1="0" y1="0" x2="1" y2="1">
      <stop offset="0" stop-color="#0C1929"/>
      <stop offset=".52" stop-color="#0B5FA5"/>
      <stop offset="1" stop-color="#D8A84C"/>
    </linearGradient>
    <radialGradient id="aura" cx="50%" cy="33%" r="60%">
      <stop offset="0" stop-color="#FFE977" stop-opacity=".9"/>
      <stop offset=".36" stop-color="#FFB800" stop-opacity=".28"/>
      <stop offset="1" stop-color="#FFB800" stop-opacity="0"/>
    </radialGradient>
    <linearGradient id="gold" x1="0" y1="0" x2="1" y2="1">
      <stop offset="0" stop-color="#FFF5A0"/>
      <stop offset=".48" stop-color="#FFBF1F"/>
      <stop offset="1" stop-color="#FF6D00"/>
    </linearGradient>
    <filter id="glow" x="-35%" y="-35%" width="170%" height="180%">
      <feDropShadow dx="0" dy="0" stdDeviation="22" flood-color="#FFD84D" flood-opacity=".62"/>
      <feDropShadow dx="0" dy="20" stdDeviation="25" flood-color="#000000" flood-opacity=".28"/>
    </filter>
    <filter id="deepCard" x="-20%" y="-20%" width="140%" height="150%">
      <feDropShadow dx="0" dy="26" stdDeviation="28" flood-color="#000000" flood-opacity=".34"/>
    </filter>
  </defs>
  <rect width="720" height="1040" rx="44" fill="url(#bg)"/>
  <circle cx="360" cy="320" r="360" fill="url(#aura)"/>
  <path d="M0 780 C110 720 226 820 360 740 C500 656 604 780 720 700 L720 1040 L0 1040 Z" fill="#FFD84D" opacity=".14"/>
  <g opacity=".76">
    <circle cx="108" cy="172" r="9" fill="#FFFFFF"/>
    <circle cx="602" cy="196" r="12" fill="#FFFFFF"/>
    <circle cx="92" cy="616" r="10" fill="#FFD84D"/>
    <circle cx="624" cy="590" r="10" fill="#FFD84D"/>
    <path d="M150 280 q54 -46 108 0" fill="none" stroke="#FFFFFF" stroke-width="13" stroke-linecap="round" opacity=".45"/>
    <path d="M456 286 q54 -46 108 0" fill="none" stroke="#FFFFFF" stroke-width="13" stroke-linecap="round" opacity=".45"/>
  </g>
  <g filter="url(#deepCard)">
    <rect x="70" y="146" width="580" height="752" rx="64" fill="#FFE977" opacity=".13"/>
    <rect x="82" y="176" width="556" height="710" rx="58" fill="#123B5B" opacity=".84" stroke="#F5E6C8" stroke-width="4"/>
    <rect x="122" y="218" width="476" height="94" rx="34" fill="#FFFFFF" opacity=".09"/>
    <rect x="156" y="804" width="408" height="46" rx="23" fill="#FFFFFF" opacity=".11"/>
  </g>
  <g filter="url(#glow)">
    <circle cx="360" cy="450" r="146" fill="url(#gold)"/>
    <circle cx="360" cy="450" r="108" fill="#161B34"/>
    <path d="M276 432 l34 -96 50 70 50 -70 34 96 42 -42 -16 120 H250 l-16 -120z" fill="url(#gold)"/>
    <circle cx="310" cy="400" r="18" fill="#FFF8B8"/>
    <circle cx="410" cy="400" r="18" fill="#FFF8B8"/>
    <circle cx="360" cy="380" r="20" fill="#FFF8B8"/>
    <rect x="282" y="520" width="156" height="34" rx="17" fill="#FFB800"/>
    <circle cx="360" cy="450" r="178" fill="none" stroke="#FFFFFF" stroke-width="18" opacity=".16"/>
    <path d="M242 686 h236 a42 42 0 0 1 42 42 v0 a42 42 0 0 1 -42 42 H242 a42 42 0 0 1 -42 -42 v0 a42 42 0 0 1 42 -42z" fill="#FFFFFF" opacity=".13"/>
  </g>
  <g opacity=".82">
    <circle cx="172" cy="418" r="10" fill="#FFE977"/>
    <circle cx="548" cy="418" r="10" fill="#FFE977"/>
    <rect x="106" y="604" width="34" height="14" rx="7" fill="#F5E6C8" transform="rotate(-20 123 611)"/>
    <rect x="580" y="604" width="34" height="14" rx="7" fill="#22C55E" transform="rotate(20 597 611)"/>
  </g>
  <g>
    <path d="M120 758 l20 40 44 6 -32 31 8 44 -40 -21 -40 21 8 -44 -32 -31 44 -6z" fill="#FFE977" opacity=".78"/>
    <path d="M606 744 l18 36 40 6 -29 28 7 40 -36 -19 -36 19 7 -40 -29 -28 40 -6z" fill="#FFE977" opacity=".68"/>
    <path d="M360 104 l18 36 40 6 -29 28 7 40 -36 -19 -36 19 7 -40 -29 -28 40 -6z" fill="#FFFFFF" opacity=".7"/>
  </g>
</svg>
