<svg xmlns="http://www.w3.org/2000/svg" viewBox="0 0 720 1040" role="img" aria-label="party rank up background">
  <defs>
    <linearGradient id="bg" x1="0" y1="0" x2="1" y2="1">
      <stop offset="0" stop-color="#0B5FA5"/>
      <stop offset=".54" stop-color="#1D8FE1"/>
      <stop offset="1" stop-color="#D8A84C"/>
    </linearGradient>
    <radialGradient id="light" cx="50%" cy="30%" r="60%">
      <stop offset="0" stop-color="#FFFFFF" stop-opacity=".82"/>
      <stop offset=".45" stop-color="#FFE96C" stop-opacity=".24"/>
      <stop offset="1" stop-color="#FFFFFF" stop-opacity="0"/>
    </radialGradient>
    <linearGradient id="medal" x1="0" y1="0" x2="1" y2="1">
      <stop offset="0" stop-color="#FFE977"/>
      <stop offset=".48" stop-color="#FFB300"/>
      <stop offset="1" stop-color="#FF6B00"/>
    </linearGradient>
    <filter id="glow" x="-30%" y="-30%" width="160%" height="170%">
      <feDropShadow dx="0" dy="18" stdDeviation="24" flood-color="#FFD43D" flood-opacity=".45"/>
    </filter>
    <filter id="cardShadow" x="-20%" y="-20%" width="140%" height="150%">
      <feDropShadow dx="0" dy="22" stdDeviation="24" flood-color="#0A0F35" flood-opacity=".34"/>
    </filter>
  </defs>
  <rect width="720" height="1040" rx="44" fill="url(#bg)"/>
  <circle cx="360" cy="260" r="360" fill="url(#light)"/>
  <path d="M128 0 l110 660" stroke="#FFFFFF" stroke-width="70" opacity=".08"/>
  <path d="M592 0 l-110 660" stroke="#FFFFFF" stroke-width="70" opacity=".08"/>
  <g opacity=".9">
    <circle cx="94" cy="164" r="12" fill="#FFE977"/>
    <circle cx="616" cy="166" r="14" fill="#58F0FF"/>
    <circle cx="138" cy="590" r="10" fill="#FFFFFF"/>
    <circle cx="584" cy="600" r="10" fill="#FFFFFF"/>
    <path d="M108 314 l28 15 -16 30 -28 -15z" fill="#F5E6C8"/>
    <path d="M584 338 l34 -10 10 34 -34 10z" fill="#22C55E"/>
    <path d="M176 212 q46 -34 92 0" fill="none" stroke="#FFFFFF" stroke-width="12" stroke-linecap="round"/>
    <path d="M452 220 q52 -38 104 0" fill="none" stroke="#FFFFFF" stroke-width="12" stroke-linecap="round"/>
  </g>
  <g filter="url(#cardShadow)">
    <rect x="70" y="154" width="580" height="742" rx="64" fill="#FFFFFF" opacity=".14"/>
    <rect x="82" y="186" width="556" height="700" rx="58" fill="#123B5B" opacity=".78" stroke="#FFFFFF" stroke-width="4"/>
    <rect x="118" y="224" width="484" height="92" rx="34" fill="#FFFFFF" opacity=".12"/>
    <rect x="158" y="800" width="404" height="46" rx="23" fill="#FFFFFF" opacity=".13"/>
  </g>
  <g filter="url(#glow)">
    <path d="M236 318 h248 l-46 128 H282z" fill="#D9EAF7"/>
    <path d="M282 446 h156 l-38 72 H320z" fill="#0B5FA5"/>
    <circle cx="360" cy="480" r="144" fill="url(#medal)"/>
    <circle cx="360" cy="480" r="108" fill="#FFF4B2"/>
    <path d="M360 374 l34 68 75 11 -54 52 13 74 -68 -36 -68 36 13 -74 -54 -52 75 -11z" fill="#FFB300"/>
    <circle cx="360" cy="480" r="168" fill="none" stroke="#FFFFFF" stroke-width="18" opacity=".22"/>
    <rect x="212" y="660" width="296" height="98" rx="36" fill="#FFFFFF" opacity=".16"/>
    <circle cx="252" cy="708" r="32" fill="#FFE36C"/>
    <circle cx="468" cy="708" r="32" fill="#50F3B8"/>
  </g>
  <g opacity=".82">
    <path d="M138 396 l40 18 -20 42 -40 -18z" fill="#F5E6C8"/>
    <path d="M552 398 l42 -16 16 42 -42 16z" fill="#22C55E"/>
    <circle cx="180" cy="642" r="11" fill="#FFE36C"/>
    <circle cx="540" cy="642" r="11" fill="#FFE36C"/>
  </g>
  <g>
    <path d="M89 756 l20 40 44 6 -32 31 8 44 -40 -21 -40 21 8 -44 -32 -31 44 -6z" fill="#FFFFFF" opacity=".48"/>
    <path d="M632 744 l18 36 40 6 -29 28 7 40 -36 -19 -36 19 7 -40 -29 -28 40 -6z" fill="#FFFFFF" opacity=".48"/>
  </g>
</svg>
